<?xml version="1.0" standalone="no"?>
<!DOCTYPE svg PUBLIC "-//W3C//DTD SVG 1.1//EN" "http://www.w3.org/Graphics/SVG/1.1/DTD/svg11.dtd" >
<svg xmlns="http://www.w3.org/2000/svg">
<metadata></metadata>
<defs>
<font id="news_gothic_demidemi" horiz-adv-x="1024" >
<font-face units-per-em="2048" ascent="1638" descent="-410" />
<missing-glyph horiz-adv-x="618" />
<glyph horiz-adv-x="2048" />
<glyph horiz-adv-x="2048" />
<glyph unicode="&#xd;" horiz-adv-x="618" />
<glyph unicode=" "  horiz-adv-x="618" />
<glyph unicode="&#x09;" horiz-adv-x="618" />
<glyph unicode="&#xa0;" horiz-adv-x="618" />
<glyph unicode="!" horiz-adv-x="647" d="M201 1485h237l-49 -998h-139zM203 0v260h233v-260h-233z" />
<glyph unicode="&#x22;" horiz-adv-x="614" d="M90 881v555h139v-555h-139zM385 881v555h139v-555h-139z" />
<glyph unicode="#" horiz-adv-x="1574" d="M88 449l53 145h310l92 264h-330l51 146h332l162 454h166l-162 -454h256l164 454h164l-160 -454h301l-51 -146h-303l-93 -264h322l-51 -145h-322l-162 -453h-165l161 453h-258l-162 -453h-165l159 453h-309zM616 594h261l92 264h-260z" />
<glyph unicode="$" horiz-adv-x="1236" d="M106 260l138 121q123 -195 313 -217v518q-219 57 -322.5 154.5t-103.5 250.5q0 174 112.5 284t313.5 110v137h121v-137q127 0 226.5 -59.5t182.5 -174.5l-135 -121q-57 94 -122.5 142.5t-151.5 48.5v-475q231 -55 340.5 -161t109.5 -278q0 -178 -121.5 -291.5 t-328.5 -113.5v-199h-121v199q-137 0 -252 68.5t-199 193.5zM311 1108q0 -158 246 -229v444q-117 0 -181.5 -58.5t-64.5 -156.5zM678 162q121 0 192.5 61.5t71.5 167.5q0 184 -264 256v-485z" />
<glyph unicode="%" horiz-adv-x="1767" d="M88 1151q0 143 102.5 247.5t247.5 104.5q147 0 250 -102.5t103 -249.5q0 -145 -103 -247.5t-250 -102.5q-143 0 -246.5 104.5t-103.5 245.5zM248 1153q0 -78 57 -135t135 -57q74 0 132.5 56t58.5 136t-55.5 135t-135.5 55q-76 0 -134 -56t-58 -134zM381 -25l862 1530h139 l-862 -1530h-139zM973 328q0 145 103.5 248.5t248.5 103.5t247.5 -102.5t102.5 -249.5t-102.5 -250t-247.5 -103q-139 0 -245.5 104.5t-106.5 248.5zM1133 328q0 -74 57 -132.5t135 -58.5q76 0 134.5 56.5t58.5 134.5q0 80 -57.5 136t-135.5 56t-135 -57t-57 -135z" />
<glyph unicode="&#x26;" horiz-adv-x="1327" d="M78 401q0 254 287 430q-57 84 -86 166t-29 168q0 156 86 248t239 92q156 0 242 -82t86 -223q0 -115 -66.5 -216.5t-211.5 -197.5q119 -190 295 -366q45 76 81 170q12 35 23.5 72.5t22.5 80.5l180 -41q-27 -125 -68 -222t-106 -185q100 -88 219 -107v-206q-176 0 -344 155 q-190 -166 -410 -166q-203 0 -321.5 119t-118.5 311zM281 410q0 -102 73 -181q76 -72 189 -71q135 0 245 110q-86 82 -166.5 186.5t-160.5 227.5q-180 -115 -180 -272zM436 1192q0 -112 88 -268q197 121 197 284q0 156 -141 156q-66 0 -105 -45t-39 -127z" />
<glyph unicode="'" horiz-adv-x="317" d="M90 881v555h139v-555h-139z" />
<glyph unicode="(" horiz-adv-x="667" d="M109 668q-1 440 282 837h193q-289 -403 -289 -837t289 -840h-193q-137 195 -213 405q-33 100 -51 211t-18 224z" />
<glyph unicode=")" horiz-adv-x="667" d="M82 -172q289 403 289 840q0 431 -289 837h190q283 -393 283 -837q0 -440 -283 -840h-190z" />
<glyph unicode="*" d="M96 1114l54 170l315 -149l-35 350h164l-35 -350l315 149l54 -170l-340 -67l239 -254l-145 -109l-170 307l-170 -307l-145 109l239 254z" />
<glyph unicode="+" horiz-adv-x="1705" d="M254 541v139h528v541h142v-541h528v-139h-528v-541h-142v541h-528z" />
<glyph unicode="," horiz-adv-x="618" d="M190 -305l107 315h-98v248h235v-270l-131 -295z" />
<glyph unicode="-" horiz-adv-x="675" d="M92 449v174h481v-174h-481z" />
<glyph unicode="." horiz-adv-x="618" d="M193 0v256h233v-256h-233z" />
<glyph unicode="/" horiz-adv-x="557" d="M-92 -190l551 1695h135l-551 -1695h-135z" />
<glyph unicode="0" horiz-adv-x="1236" d="M94 741q0 381 133 572.5t391 191.5q522 0 523 -764q0 -377 -133.5 -571.5t-389.5 -194.5q-254 0 -389 193.5t-135 572.5zM299 741q0 -590 319 -589q317 0 318 589q-1 590 -318 590q-319 0 -319 -590z" />
<glyph unicode="1" horiz-adv-x="1236" d="M262 1262v133q164 36 322 110h141v-1339h238v-166h-676v166h241v1118z" />
<glyph unicode="2" horiz-adv-x="1236" d="M106 0v195q117 219 332 389l226 176q104 88 149 155q53 82 53 177q0 102 -67.5 171.5t-177.5 69.5q-121 0 -203 -73.5t-107 -206.5l-192 39q37 197 169 305t324 108q217 0 339 -114.5t122 -307.5q0 -156 -102 -284q-76 -96 -287 -256q-172 -131 -240 -193 q-100 -94 -135 -170h764v-180h-967z" />
<glyph unicode="3" horiz-adv-x="1236" d="M57 268l166 109q133 -225 352 -225q137 0 217 71.5t80 200.5q0 141 -105 209.5t-329 68.5l-61 -2v179l72 -5q383 0 382 250q0 98 -69.5 154.5t-190.5 56.5q-178 0 -301 -178l-145 113q174 236 469 235q205 0 321.5 -101t116.5 -274q0 -231 -221 -329q268 -92 268 -385 q0 -199 -133 -320t-360 -121q-358 0 -529 293z" />
<glyph unicode="4" horiz-adv-x="1236" d="M66 346v174l614 963h240v-971h231v-166h-231v-364h-191v364h-663zM246 510h485v770z" />
<glyph unicode="5" horiz-adv-x="1236" d="M123 260l178 92q106 -205 305 -205q135 0 223.5 98.5t88.5 266.5q0 143 -80 233q-41 43 -91.5 66t-115.5 23q-197 0 -277 -187l-166 39l62 797h774v-183h-614l-31 -407q109 109 285 108q203 0 331.5 -136t128.5 -365q0 -231 -141 -378t-373 -147q-344 0 -487 285z" />
<glyph unicode="6" horiz-adv-x="1236" d="M115 664q0 203 39 352t125 264q164 223 442 223q192 0 352 -96l-86 -160q-127 82 -264 82q-170 0 -284.5 -147.5t-114.5 -397.5q156 156 356 156q195 0 322.5 -131t127.5 -342q0 -221 -137 -355.5t-356 -134.5q-252 0 -387 175.5t-135 511.5zM319 537q0 -178 89.5 -282.5 t230.5 -104.5q121 0 206 87t85 226q0 135 -80 223t-209 88q-106 0 -189.5 -62t-132.5 -175z" />
<glyph unicode="7" horiz-adv-x="1236" d="M135 1298v185h961v-129l-613 -1372h-221l602 1316h-729z" />
<glyph unicode="8" horiz-adv-x="1236" d="M90 375q0 276 307 411q-250 111 -250 347q0 168 127 270t344 102q221 0 348.5 -100t127.5 -270q0 -240 -248 -344q301 -141 301 -396q0 -199 -139.5 -309.5t-399.5 -110.5q-246 0 -382 109t-136 291zM295 391q0 -111 83 -177.5t228 -66.5q158 0 248 64.5t90 171.5 q0 106 -81 177.5t-267 137.5q-301 -109 -301 -307zM344 1139q0 -174 287 -260q264 84 264 258q0 90 -73.5 148t-192.5 58q-133 0 -209 -55t-76 -149z" />
<glyph unicode="9" horiz-adv-x="1236" d="M100 1016q0 217 135.5 352t358.5 135q256 0 390 -174t134 -514q0 -389 -167 -614.5t-443 -225.5q-207 1 -348 99l86 159q66 -41 127 -61t135 -20q176 0 288.5 147t112.5 397q-160 -156 -356 -155q-197 0 -325 132t-128 343zM303 1018q0 -135 80 -223t209 -88 q102 0 187 60t134 177q0 180 -88 283.5t-231 103.5q-123 0 -207 -88t-84 -225z" />
<glyph unicode=":" horiz-adv-x="649" d="M197 0v252h233v-252h-233zM197 604v252h233v-252h-233z" />
<glyph unicode=";" horiz-adv-x="649" d="M195 -305l106 315h-98v248h235v-270l-131 -295zM205 604v252h233v-252h-233z" />
<glyph unicode="&#x3c;" horiz-adv-x="1705" d="M264 547v129l1178 483v-153l-969 -396l969 -393v-154z" />
<glyph unicode="=" horiz-adv-x="1705" d="M254 342v139h1198v-139h-1198zM254 739v140h1198v-140h-1198z" />
<glyph unicode="&#x3e;" horiz-adv-x="1705" d="M264 63v154l971 393l-971 396v153l1178 -483v-129z" />
<glyph unicode="?" horiz-adv-x="899" d="M74 1237q92 268 366 268q156 0 253.5 -90t97.5 -231q0 -68 -20.5 -120t-59.5 -116q-16 -31 -80 -98.5t-91.5 -110.5t-42 -96t-14.5 -117v-43h-182l-2 68q0 94 14.5 153.5t63.5 124.5l139 189q70 98 70 170q0 70 -41 111.5t-109 41.5q-123 0 -186 -176zM270 0v256h236 v-256h-236z" />
<glyph unicode="@" horiz-adv-x="2048" d="M106 522q0 332 203 582q145 180 348 271t459 91q172 0 315.5 -45t247.5 -127q264 -203 265 -514q0 -174 -62.5 -313t-185.5 -238q-143 -113 -316 -112q-201 0 -200 157v19q-109 -174 -301 -174q-313 0 -314 332q0 238 136.5 395.5t340.5 157.5q168 0 242 -150l57 115h132 l-146 -576l-8 -59q0 -94 100 -94t209 102q80 74 125 182q20 51 32.5 112.5t12.5 125.5q0 258 -189.5 419.5t-500.5 161.5q-268 0 -455.5 -112.5t-296.5 -302.5q-53 -94 -79.5 -193.5t-26.5 -214.5q0 -342 254 -538q98 -74 233 -117t291 -43q166 0 325.5 49t295.5 141l55 -82 q-297 -223 -664 -223q-381 0 -628 187q-305 233 -306 628zM725 446q0 -219 186 -219q94 0 173 67.5t106 180.5l59 236q-35 184 -198 184q-139 0 -232.5 -130t-93.5 -319z" />
<glyph unicode="A" horiz-adv-x="1247" d="M23 0l454 1485h293l453 -1485h-219l-117 401h-535l-114 -401h-215zM403 582h428l-202 725h-17z" />
<glyph unicode="B" horiz-adv-x="1331" d="M180 0v1485h463q541 0 541 -375q0 -236 -232 -330q270 -98 271 -372q0 -408 -559 -408h-484zM391 180h273q178 0 260 60.5t82 195.5q0 256 -338 256h-277v-512zM391 866h279q299 0 299 228q0 109 -82 163q-84 51 -250 52h-246v-443z" />
<glyph unicode="C" horiz-adv-x="1249" d="M86 739q0 369 152.5 567.5t425.5 198.5q409 0 505 -418l-198 -49q-66 287 -316 287q-166 0 -259 -151.5t-93 -436.5q0 -283 93 -428t274 -145q125 0 212 76.5t117 222.5l197 -49q-115 -438 -532 -439q-276 0 -427 196t-151 568z" />
<glyph unicode="D" horiz-adv-x="1396" d="M186 0v1485h396q713 0 712 -742q0 -743 -737 -743h-371zM399 190h142q283 0 410.5 128t127.5 425q0 295 -127 425t-401 130h-152v-1108z" />
<glyph unicode="E" horiz-adv-x="1196" d="M188 0v1485h914v-185h-701v-432h502v-182h-502v-496h734v-190h-947z" />
<glyph unicode="F" horiz-adv-x="1124" d="M184 0v1485h901v-185h-688v-430h514v-186h-514v-684h-213z" />
<glyph unicode="G" horiz-adv-x="1359" d="M86 737q0 369 157.5 568.5t444.5 199.5q190 0 323.5 -105t190.5 -302l-205 -47q-39 127 -121.5 199.5t-195.5 72.5q-377 0 -377 -590q0 -270 102.5 -419.5t280.5 -149.5q154 0 240 99t86 290h-316v182h533v-735h-168l-10 160q-139 -184 -387 -185q-272 0 -425 201 t-153 561z" />
<glyph unicode="H" horiz-adv-x="1462" d="M184 0v1485h213v-615h668v615h213v-1485h-213v678h-668v-678h-213z" />
<glyph unicode="I" horiz-adv-x="622" d="M203 0v1485h213v-1485h-213z" />
<glyph unicode="J" horiz-adv-x="899" d="M-4 174l164 119q72 -129 172 -129q98 0 136 59.5t38 190.5v1071h213v-1075q0 -434 -383 -435q-217 0 -340 199z" />
<glyph unicode="K" horiz-adv-x="1308" d="M186 0v1485h213v-742l570 742h241l-444 -557l512 -928h-248l-405 750l-226 -281v-469h-213z" />
<glyph unicode="L" horiz-adv-x="1091" d="M188 0v1485h213v-1295h654v-190h-867z" />
<glyph unicode="M" horiz-adv-x="1722" d="M184 0v1485h318l268 -844q16 -51 43 -149.5t51 -188.5q41 158 101 336l272 846h301v-1485h-195v1280l-100 -328l-307 -952h-152l-305 952l-100 328v-1280h-195z" />
<glyph unicode="N" horiz-adv-x="1462" d="M182 0v1485h262l474 -815q33 -57 88 -162q37 -68 81 -158l-4 158l-4 139v838h201v-1485h-186l-535 889q-84 141 -184 340l4 -172l4 -144v-913h-201z" />
<glyph unicode="O" horiz-adv-x="1372" d="M86 741q0 356 160.5 560t439.5 204q274 0 437 -203.5t163 -560.5q0 -354 -162.5 -560t-437.5 -206q-276 0 -438 205t-162 561zM305 741q0 -274 98.5 -424.5t282.5 -150.5q178 0 279.5 149.5t101.5 425.5t-100.5 426t-280.5 150q-176 0 -278.5 -149.5t-102.5 -426.5z" />
<glyph unicode="P" horiz-adv-x="1261" d="M184 0v1485h475q260 0 389.5 -103.5t129.5 -318.5q0 -203 -123 -315.5t-359 -112.5h-299v-635h-213zM397 817h234q172 0 251 55.5t79 192.5q0 129 -79 184.5t-257 55.5h-228v-488z" />
<glyph unicode="Q" horiz-adv-x="1372" d="M86 741q0 352 161 558t425 206q285 0 449.5 -198.5t164.5 -546.5q0 -174 -36.5 -311t-116.5 -252q23 -27 43 -48.5t45 -37.5q49 -27 104 -27v-201h-12q-188 0 -320 180q-145 -88 -313 -88q-270 0 -432 205t-162 561zM305 739q0 -276 99.5 -424.5t285.5 -148.5 q115 0 201 65q-74 111 -176 125v201q157 0 286 -168q66 131 66 352q0 276 -100.5 426t-276.5 150q-180 0 -282.5 -150.5t-102.5 -427.5z" />
<glyph unicode="R" horiz-adv-x="1349" d="M184 0v1485h455q297 0 437.5 -99.5t140.5 -316.5q0 -293 -293 -379l340 -690h-234l-309 641h-326v-641h-211zM395 823h246q182 0 270 55.5t88 184.5q0 133 -84 186q-80 55 -270 56h-250v-482z" />
<glyph unicode="S" horiz-adv-x="1169" d="M63 356l199 78q98 -272 344 -272q117 0 187.5 64.5t70.5 166.5q0 98 -88 166q-59 45 -254 125q-213 88 -305 174q-102 98 -102 252q0 170 125 282.5t327 112.5q182 0 304 -88t173 -258l-192 -63q-80 229 -303 229q-98 0 -155.5 -51t-57.5 -133q0 -92 67 -158 q51 -49 218 -121l163 -67q92 -43 148 -90q145 -121 145 -306q0 -182 -130 -302t-347 -120q-197 0 -333 95.5t-204 283.5z" />
<glyph unicode="T" horiz-adv-x="1134" d="M43 1296v189h1047v-189h-414v-1296h-219v1296h-414z" />
<glyph unicode="U" horiz-adv-x="1458" d="M182 522v963h213v-940q0 -199 77 -291t259 -92q186 0 260 92t74 291v940h211v-985q0 -256 -142.5 -390.5t-414.5 -134.5q-537 0 -537 547z" />
<glyph unicode="V" horiz-adv-x="1232" d="M23 1485h217l372 -1206h9l372 1206h217l-477 -1485h-235z" />
<glyph unicode="W" horiz-adv-x="1896" d="M39 1485h213l225 -844l45 -182l23 -119l8 -2q12 84 37 172l35 127l229 848h190l228 -844q12 -45 25.5 -103.5t39.5 -197.5l11 -2q4 27 9 56.5t20.5 92t18.5 78t21 72.5l228 848h213l-410 -1485h-195l-229 834l-76 313l-74 -311l-231 -836h-194z" />
<glyph unicode="X" horiz-adv-x="1140" d="M18 0l439 774l-406 711h240l284 -518l279 518h227l-395 -701l442 -784h-243l-316 598l-323 -598h-228z" />
<glyph unicode="Y" horiz-adv-x="1134" d="M18 1485h230l323 -656l324 656h219l-438 -875v-610h-215v608z" />
<glyph unicode="Z" horiz-adv-x="1118" d="M57 0v168l738 1132h-676v185h921v-162l-739 -1135h741v-188h-985z" />
<glyph unicode="[" horiz-adv-x="667" d="M168 -152v1637h438v-107h-258v-1423h258v-107h-438z" />
<glyph unicode="\" horiz-adv-x="557" d="M-37 1505h135l551 -1695h-135z" />
<glyph unicode="]" horiz-adv-x="667" d="M61 -45h258v1423h-258v107h439v-1637h-439v107z" />
<glyph unicode="^" horiz-adv-x="2048" d="M420 901l510 557h186l510 -557h-180l-422 420l-424 -420h-180z" />
<glyph unicode="_" d="M0 -340h1024v-143h-1024v143z" />
<glyph unicode="`" d="M242 1554h215l202 -358h-120z" />
<glyph unicode="a" horiz-adv-x="1040" d="M76 276q0 170 150.5 271.5t478.5 157.5v81q0 68 -51.5 107t-139.5 39q-160 0 -248 -146l-149 86q127 219 413 220q168 0 266.5 -85t98.5 -233v-612q0 -70 20 -150v-12h-196l-21 123q-150 -137 -329 -137q-137 0 -215 77q-37 39 -57.5 92.5t-20.5 120.5zM268 287 q0 -143 152 -144q118 1 280 144v264q-432 -74 -432 -264z" />
<glyph unicode="b" horiz-adv-x="1110" d="M141 0l11 147l2 154v1184h192v-529q98 133 262 134q190 0 310 -147.5t120 -399.5q0 -264 -111.5 -412.5t-316.5 -148.5q-176 0 -286 141l-31 -123h-152zM346 276q104 -133 234 -133q123 0 191.5 99.5t68.5 285.5q0 399 -267 400q-123 0 -227 -129v-523z" />
<glyph unicode="c" horiz-adv-x="974" d="M68 524q0 262 116.5 415t317.5 153q307 0 407 -285l-174 -66q-59 186 -223 187q-117 0 -182.5 -101.5t-65.5 -289.5q0 -391 250 -392q164 0 256 193l156 -82q-123 -274 -420 -274q-211 0 -324.5 141t-113.5 401z" />
<glyph unicode="d" horiz-adv-x="1110" d="M72 539q0 262 113.5 406.5t312.5 144.5q172 0 266 -132v527h192v-1188q0 -25 2.5 -76t2.5 -78t1 -50t9 -93h-152l-33 127q-111 -145 -292 -145q-190 0 -306 149.5t-116 407.5zM270 543q0 -397 265 -398q129 0 229 131v523q-106 131 -234 131q-123 0 -191.5 -99.5 t-68.5 -287.5z" />
<glyph unicode="e" horiz-adv-x="997" d="M70 524q0 274 115.5 421t326.5 147q188 0 304 -142.5t116 -392.5l-2 -55h-664v-21q0 -160 70 -249t199 -89q166 0 260 168l143 -88q-134 -243 -412 -243h-2q-223 0 -338.5 139t-115.5 405zM268 651h465q0 133 -61.5 209t-165.5 76q-106 0 -174 -74q-63 -76 -64 -211z" />
<glyph unicode="f" horiz-adv-x="589" d="M4 909v164h168v156q0 276 277 276q45 0 66.5 -3t72.5 -13v-162l-99 10q-66 0 -95 -31.5t-29 -103.5v-129h215v-164h-215v-909h-193v909h-168z" />
<glyph unicode="g" horiz-adv-x="1005" d="M41 -125q0 76 41 123t141 84q-70 29 -100 65q-10 12 -19 29q-14 29 -14 66q0 110 150 192q-143 100 -144 285q0 172 110.5 273.5t299.5 101.5q141 0 250 -84q96 98 196 98l33 -2v-160h-49l-57 -6q-20 -6 -43 -25q25 -39 39 -86t14 -108q0 -168 -107 -268 q-51 -47 -122.5 -72t-163.5 -25q-68 0 -142 19q-78 -31 -78 -84q0 -84 228 -84q252 0 356 -55q119 -63 119 -224q0 -317 -508 -317q-430 0 -430 264zM227 -102q0 -139 271 -140q133 0 209.5 42t76.5 112q0 121 -204 121l-197 14q-156 -59 -156 -149zM281 727q0 -100 55 -162 q57 -57 162 -57q98 0 155.5 57.5t57.5 157.5q0 98 -59.5 157.5t-155.5 59.5q-98 0 -158 -57q-29 -29 -43 -66t-14 -90z" />
<glyph unicode="h" horiz-adv-x="1128" d="M154 0v1485h192v-553q171 155 332 155h2q141 0 222 -80.5t81 -234.5v-772h-192v719q0 207 -166 207q-127 0 -279 -142v-784h-192z" />
<glyph unicode="i" horiz-adv-x="514" d="M152 1278v207h210v-207h-210zM162 0v1073h192v-1073h-192z" />
<glyph unicode="j" horiz-adv-x="530" d="M-8 -207l65 -8q68 0 93.5 30.5t25.5 106.5v1151h193v-1147q0 -166 -56.5 -240.5t-203.5 -74.5q-43 0 -62.5 3t-54.5 13v166zM168 1278v207h209v-207h-209z" />
<glyph unicode="k" horiz-adv-x="1013" d="M154 0v1485h192v-910l412 498h215l-332 -387l365 -686h-213l-283 532l-164 -182v-350h-192z" />
<glyph unicode="l" horiz-adv-x="514" d="M160 0v1485h192v-1485h-192z" />
<glyph unicode="m" horiz-adv-x="1697" d="M152 0v1073h178v-145q152 164 340 164q184 0 252 -170q164 170 354 170q129 0 202.5 -75t73.5 -212v-805h-194v743q0 184 -148 185q-139 0 -266 -140v-788h-188v727q0 104 -35 152q-31 49 -113 49q-135 0 -264 -142v-786h-192z" />
<glyph unicode="n" horiz-adv-x="1112" d="M154 0v1073h178v-147q86 74 172 121q80 40 166 40h4q139 0 216 -82.5t77 -232.5v-772h-195v719q0 207 -158 207q-123 0 -268 -142v-784h-192z" />
<glyph unicode="o" horiz-adv-x="1032" d="M63 537q0 264 118 409.5t335 145.5t334 -144.5t117 -410.5t-118 -411.5t-333 -145.5q-213 0 -333 147t-120 410zM262 537q0 -389 254 -390q254 0 254 388q0 389 -254 389t-254 -387z" />
<glyph unicode="p" horiz-adv-x="1112" d="M154 -389v1462h145l27 -127q57 70 125.5 108t158.5 38q199 0 318 -149.5t119 -410.5q0 -260 -118 -405t-321 -145q-160 0 -262 127v-498h-192zM344 272q113 -131 240 -131q123 0 193.5 99.5t70.5 287.5q0 397 -270 398q-129 0 -234 -131v-523z" />
<glyph unicode="q" horiz-adv-x="1110" d="M70 526q0 264 113.5 415t310.5 151q177 -1 290 -144l31 125h152v-55v-53q-4 -23 -4 -33l-9 -162v-1159h-192v504q-96 -133 -262 -133q-199 0 -314.5 145t-115.5 399zM268 543q0 -399 267 -400q123 0 227 129v523q-104 133 -234 133q-123 0 -191.5 -99.5t-68.5 -285.5z " />
<glyph unicode="r" horiz-adv-x="681" d="M154 0v1073h190v-215q104 229 291 229l33 -2v-200h-17q-195 0 -299 -262v-623h-198z" />
<glyph unicode="s" horiz-adv-x="894" d="M41 188l141 113q127 -164 279 -164q82 0 130 41t48 107q0 92 -109 141l-159 61q-147 55 -213 121q-74 72 -74 187q0 127 93 212t251 85q222 0 369 -172l-125 -117q-113 131 -240 131q-72 0 -114 -33t-42 -92q0 -88 190.5 -159.5t270.5 -139.5q92 -80 92 -209 q0 -141 -104 -231t-274 -90q-256 0 -410 208z" />
<glyph unicode="t" horiz-adv-x="643" d="M29 909v164h151v344h193v-344h235v-164h-235v-622q0 -76 23.5 -106.5t97.5 -30.5l59 2q29 0 55 10v-162q-76 -20 -178 -20q-250 0 -250 227v702h-151z" />
<glyph unicode="u" horiz-adv-x="1112" d="M145 299v774h195v-721q0 -104 37 -155.5t121 -51.5q125 0 266 142v786h194v-1073h-180v145q-94 -84 -176 -122.5t-168 -38.5q-133 0 -211 81.5t-78 233.5z" />
<glyph unicode="v" horiz-adv-x="956" d="M16 1073h195l201 -641l63 -225l33 125l31 100l202 641h195l-350 -1073h-219z" />
<glyph unicode="w" horiz-adv-x="1505" d="M39 1073h190l166 -606l49 -227q6 49 25 116l25 93l170 624h176l166 -606l51 -227q18 98 49 209l168 624h190l-305 -1073h-201l-151 543l-29 104l-26 117l-54 -217l-155 -547h-199z" />
<glyph unicode="x" horiz-adv-x="907" d="M12 0l334 563l-307 510h215l197 -356l198 356h203l-297 -510l336 -563h-217l-228 418l-229 -418h-205z" />
<glyph unicode="y" horiz-adv-x="956" d="M16 1073h195l278 -790l254 790h193l-354 -1057q-72 -219 -146 -303q-90 -102 -250 -102l-61 2q-27 0 -53 10v170q23 -6 40 -8t54 -2q96 0 148.5 54t82.5 186z" />
<glyph unicode="z" horiz-adv-x="903" d="M45 0v141l563 770h-510v162h748v-141l-561 -766h561v-166h-801z" />
<glyph unicode="{" d="M168 457v149l45 -2q131 0 184.5 61.5t53.5 206.5v246q0 127 18 195.5t82 111.5q47 27 110.5 39.5t167.5 12.5h37v-150h-41q-123 0 -162.5 -48t-39.5 -181v-242q0 -150 -37 -217q-43 -76 -164 -109q119 -31 164 -106q37 -66 37 -219v-242q0 -135 37.5 -182t166.5 -47h39 v-148h-43l-145 6q-70 6 -130.5 44t-78.5 106t-18 201v245q0 150 -53.5 210.5t-186.5 60.5z" />
<glyph unicode="|" d="M438 -483v2048h150v-2048h-150z" />
<glyph unicode="}" d="M160 -266h39q121 0 162.5 48t41.5 183v240q0 152 39 221.5t162 103.5q-119 31 -160 105t-41 221v242q0 135 -37.5 182t-166.5 47h-39v150h37q92 0 163 -13q68 -8 122.5 -41.5t73.5 -102.5t19 -202v-246q0 -150 52.5 -209t185.5 -59l45 2v-149l-43 2q-131 0 -185.5 -62.5 t-54.5 -208.5v-245q0 -127 -18 -196t-82 -112q-41 -27 -112.5 -38t-159.5 -11h-43v148z" />
<glyph unicode="~" horiz-adv-x="1705" d="M178 451v155q211 143 387 144q25 0 55.5 -1t92 -16.5t143.5 -44.5l193 -63q43 -8 58 -9.5t36 -1.5q90 0 180 37t207 119v-156q-203 -141 -389 -141q-53 0 -78 4t-70 19q-29 6 -67 18q-45 18 -72 27l-143 47q-88 20 -148 20q-90 0 -179 -38t-206 -119z" />
<glyph unicode="&#xa0;" />
<glyph unicode="&#xa1;" horiz-adv-x="647" d="M201 0l49 997h139l49 -997h-237zM203 1225v260h233v-260h-233z" />
<glyph unicode="&#xa2;" horiz-adv-x="1236" d="M182 547q0 262 124 413.5t337 151.5q33 0 49.5 -2t63.5 -14l75 215h130l-95 -262q104 -72 170 -224l-174 -69q-25 76 -65 112l-250 -690q41 -12 84 -12q174 0 260 188l162 -82q-121 -274 -430 -274q-53 0 -84 6l-47 14l-86 -243h-130l109 301q-94 61 -148.5 183 t-54.5 288zM379 547q0 -182 74 -291l245 678l-43 12l-34 4q-109 0 -175.5 -106.5t-66.5 -296.5z" />
<glyph unicode="&#xa3;" horiz-adv-x="1236" d="M66 662v151h200q-27 170 -26 252q0 201 117.5 320.5t316.5 119.5q197 0 313.5 -104t147.5 -305l-193 -17q-12 119 -84 185q-70 70 -178 69q-109 0 -176 -69q-61 -68 -62 -195q0 -68 25 -256h291v-151h-273v-64q0 -96 -12 -167t-45 -142q172 -125 315 -125q213 0 238 244 l190 -17q0 -199 -105 -307.5t-290 -108.5q-221 0 -434 152q-98 -123 -274 -150v205q215 66 215 357l-4 123h-213z" />
<glyph unicode="&#xa4;" horiz-adv-x="1241" d="M80 428l207 205q-37 49 -60.5 111.5t-23.5 140.5q0 141 84 252l-207 206l82 80l205 -204q115 86 254 86t256 -86l204 204l82 -80l-205 -206q82 -111 82 -252q0 -76 -19.5 -134.5t-62.5 -117.5l205 -205l-82 -82l-204 205q-51 -39 -119 -66q-66 -20 -135 -20 q-139 0 -256 86l-205 -205zM319 887q0 -125 87.5 -215t216.5 -90q127 0 215 88t88 217q0 123 -87 213t-216 90q-127 0 -215.5 -88t-88.5 -215z" />
<glyph unicode="&#xa5;" horiz-adv-x="1236" d="M68 616v113h395l-92 184h-303v113h245l-231 455h211l330 -682l329 682h201l-229 -455h241v-113h-299l-92 -184h391v-113h-452v-616h-191v616h-454z" />
<glyph unicode="&#xa6;" d="M438 -350v758h150v-758h-150zM438 674v758h150v-758h-150z" />
<glyph unicode="&#xa7;" d="M129 807q0 92 60.5 157.5t162.5 65.5q-111 123 -110 232q0 109 73.5 176t202.5 67q182 0 293 -168l-119 -86q-84 117 -172 117q-111 0 -110 -106q0 -61 69 -140l96 -100l152 -152q86 -86 130 -162.5t44 -164.5t-59.5 -145.5t-167.5 -69.5q115 -121 114 -258 q0 -115 -77.5 -186.5t-200.5 -71.5q-195 0 -317 180l118 88q92 -123 189 -123q119 0 118 119q0 66 -86 170l-122 133l-152 162q-63 68 -96 134t-33 132zM285 817q0 -66 123 -201q158 -174 235 -174q43 0 70.5 28t27.5 71q0 33 -23.5 74.5t-70.5 95.5q-88 100 -153.5 154.5 t-110.5 54.5q-41 0 -69.5 -29t-28.5 -74z" />
<glyph unicode="&#xa8;" d="M250 1257v213h190v-213h-190zM584 1257v213h190v-213h-190z" />
<glyph unicode="&#xa9;" horiz-adv-x="1705" d="M117 727q0 303 219 524q213 213 516 213q305 0 524 -215q106 -106 160.5 -238t54.5 -284q0 -309 -213 -516q-106 -100 -245 -164q-70 -29 -136.5 -43t-144.5 -14q-299 0 -517 219t-218 518zM213 727q0 -121 49 -239.5t141 -211.5q188 -188 451 -188q121 0 237.5 48 t217.5 143q184 178 184 448q0 268 -186.5 454.5t-452.5 186.5q-131 0 -242.5 -45t-206 -139t-143.5 -211t-49 -246zM463 733q0 203 108.5 324t286.5 121q139 0 234.5 -74t107.5 -197h-147q-25 160 -205 160q-100 0 -162.5 -88t-62.5 -252q0 -156 61 -244t174 -88 q82 0 136.5 45t68.5 131h145q0 -129 -103.5 -210.5t-252.5 -81.5q-178 0 -283.5 117.5t-105.5 336.5z" />
<glyph unicode="&#xaa;" horiz-adv-x="780" d="M57 928q0 123 109.5 190.5t361.5 110.5v57q0 47 -39.5 73.5t-103.5 26.5q-121 0 -184 -100l-113 60q92 154 309 153q127 0 201 -59.5t74 -161.5v-430q0 -37 4 -60l10 -45v-8h-147l-15 86q-113 -96 -248 -96q-98 0 -158.5 55.5t-60.5 147.5zM201 936q0 -45 31.5 -72.5 t82.5 -27.5q86 0 211 100v184q-326 -49 -325 -184z" />
<glyph unicode="&#xab;" horiz-adv-x="1064" d="M121 537l254 319h186l-252 -319l250 -322h-192zM475 537l254 319h186l-249 -319l247 -322h-190z" />
<glyph unicode="&#xac;" horiz-adv-x="1705" d="M254 721v139h1198v-502h-137v363h-1061z" />
<glyph unicode="&#xad;" horiz-adv-x="1705" d="M254 541v141h1198v-141h-1198z" />
<glyph unicode="&#xae;" horiz-adv-x="1705" d="M117 727q0 150 56 284t167 244q98 100 230 154.5t282 54.5q311 0 525 -217t214 -520q0 -150 -55 -282t-160 -236q-225 -219 -524 -219q-301 0 -518 220t-217 517zM213 727q0 -256 187.5 -447.5t447.5 -191.5q264 0 459 188q186 181 186 445q0 272 -185.5 459.5 t-453.5 187.5q-266 0 -446 -182q-195 -199 -195 -459zM557 324v835h315q348 0 349 -229q0 -86 -48.5 -144.5t-142.5 -80.5l187 -381h-177l-170 356h-155v-356h-158zM715 780h133q113 0 162 30t49 103q0 72 -51 108t-164 36h-129v-277z" />
<glyph unicode="&#xaf;" d="M242 1294v140h540v-140h-540z" />
<glyph unicode="&#xb0;" horiz-adv-x="673" d="M49 1167q0 121 84 205t205 84q119 0 203 -84t84 -205q0 -119 -82 -202.5t-207 -83.5q-123 0 -205 82q-41 41 -61.5 90t-20.5 114zM143 1169q0 -78 56 -139q57 -57 139 -57q80 0 136 56t56 140q0 80 -57 136.5t-135 56.5t-136.5 -56.5t-58.5 -136.5z" />
<glyph unicode="&#xb1;" horiz-adv-x="1705" d="M254 29v141h1198v-141h-1198zM254 713v139h528v340h142v-340h528v-139h-528v-340h-142v340h-528z" />
<glyph unicode="&#xb2;" horiz-adv-x="817" d="M70 592v117q76 131 219 231l164 119q119 94 118 188q0 66 -45 106t-116 40q-172 0 -205 -170l-127 24q25 115 113 181.5t212 66.5q141 0 223.5 -69.5t82.5 -184.5q0 -90 -68 -170q-49 -57 -190 -153q-119 -82 -158 -115q-63 -52 -88 -103h504v-108h-639z" />
<glyph unicode="&#xb3;" horiz-adv-x="817" d="M37 754l110 63q86 -135 232 -135q88 0 142 43t54 121q0 168 -286 168l-41 -2v106l49 -2q252 0 252 150q0 127 -172 127q-117 0 -199 -107l-96 68q117 141 309 141q133 0 212 -61.5t79 -163.5q0 -138 -147 -197q178 -55 178 -231q0 -117 -88 -190.5t-238 -73.5 q-238 0 -350 176z" />
<glyph unicode="&#xb4;" d="M365 1196l202 358h215l-297 -358h-120z" />
<glyph unicode="&#xb5;" horiz-adv-x="1150" d="M-113 -428l318 1499h180l-129 -600q-6 -31 -10 -63.5t-4 -69.5q0 -100 50 -153.5t150 -53.5q135 0 209 91t123 313l115 536h178l-156 -731l-16 -76l-6 -57q0 -68 72 -68l32 2l-30 -143l-54 -8l-55 -2q-68 0 -98.5 27.5t-50.5 101.5q-88 -131 -271 -131q-154 0 -256 116 l-110 -530h-181z" />
<glyph unicode="&#xb6;" d="M66 1130q0 154 106 252q51 47 123 72t164 25h499v-86h-120v-1393h-111v1393h-178v-1393h-111v782q-170 0 -271 98.5t-101 249.5z" />
<glyph unicode="&#xb7;" horiz-adv-x="618" d="M166 735q0 59 41 100.5t102 41.5t102.5 -41t41.5 -101q0 -61 -41 -102t-103 -41q-57 0 -100 41t-43 102z" />
<glyph unicode="&#xb8;" d="M291 -324q84 -18 145.5 -28t106.5 -10q111 0 110 77q0 41 -32 66q-35 20 -101 20l-51 -2v201h86v-98h20q229 0 230 -176q0 -197 -256 -197h-64q-31 6 -53 9t-54 9.5t-87 22.5v106z" />
<glyph unicode="&#xb9;" horiz-adv-x="815" d="M172 1350v80l109 24q37 10 50 15.5t54 25.5h92v-803h158v-100h-447v100h160v670z" />
<glyph unicode="&#xba;" horiz-adv-x="774" d="M47 1110q0 184 90 286.5t250 102.5t249 -101.5t89 -287.5q0 -184 -87 -286.5t-251 -102.5q-160 0 -252 100q-88 104 -88 289zM197 1110q0 -272 190 -272t191 272q-1 272 -191 272t-190 -272z" />
<glyph unicode="&#xbb;" horiz-adv-x="1064" d="M143 213l252 322l-248 321h191l248 -321l-254 -322h-189zM502 213l252 322l-250 321h192l246 -321l-254 -322h-186z" />
<glyph unicode="&#xbc;" horiz-adv-x="1900" d="M166 1358v74q115 24 201 63h90v-752h149v-92h-426v92h152v627zM436 -25l899 1530h125l-899 -1530h-125zM1161 195v96l387 538h152v-542h145v-92h-145v-205h-121v205h-418zM1276 285h305v432z" />
<glyph unicode="&#xbd;" horiz-adv-x="1900" d="M166 1358v74q115 24 201 63h90v-752h149v-92h-426v92h152v627zM436 -25l899 1530h125l-899 -1530h-125zM1188 0v109q70 123 210 218t193 142q74 68 74 141q0 61 -43 99.5t-111 38.5q-164 0 -194 -158l-121 20q25 111 105.5 172.5t203.5 61.5q135 0 213 -62.5t78 -175.5 q0 -86 -63 -157q-47 -53 -183 -146l-149 -106q-63 -52 -86 -97h481v-100h-608z" />
<glyph unicode="&#xbe;" horiz-adv-x="1900" d="M37 801l104 61q84 -127 221 -127q86 0 136.5 41t50.5 113q0 156 -273 155h-38v99l45 -2q242 0 241 139q0 119 -164 119q-115 0 -190 -101l-92 64q111 133 297 133q131 0 203.5 -56.5t72.5 -154.5q0 -129 -141 -184q170 -53 170 -215q0 -111 -84 -179.5t-227 -68.5 q-223 0 -332 164zM438 -25l899 1530h125l-899 -1530h-125zM1163 195v96l387 538h152v-542h145v-92h-145v-205h-121v205h-418zM1278 285h305v432z" />
<glyph unicode="&#xbf;" horiz-adv-x="899" d="M96 299q0 39 4 64.5t19.5 66.5t56.5 105q12 20 105 124q43 49 67.5 88t39.5 95.5t15 115.5v39h181l2 -69q0 -68 -3 -92.5t-14 -57.5q-12 -61 -59 -123l-143 -192q-68 -92 -68 -170q0 -70 43 -111t107 -41q125 0 188 174l176 -69q-98 -268 -369 -269q-156 0 -252 89.5 t-96 232.5zM379 1229v256h235v-256h-235z" />
<glyph unicode="&#xc0;" horiz-adv-x="1247" d="M23 0l454 1485h293l453 -1485h-219l-117 401h-535l-114 -401h-215zM355 1970h215l202 -358h-120zM403 582h428l-202 725h-17z" />
<glyph unicode="&#xc1;" horiz-adv-x="1247" d="M23 0l454 1485h293l453 -1485h-219l-117 401h-535l-114 -401h-215zM403 582h428l-202 725h-17zM478 1612l202 358h215l-297 -358h-120z" />
<glyph unicode="&#xc2;" horiz-adv-x="1247" d="M23 0l454 1485h293l453 -1485h-219l-117 401h-535l-114 -401h-215zM326 1612l197 358h204l197 -358h-123l-176 231l-178 -231h-121zM403 582h428l-202 725h-17z" />
<glyph unicode="&#xc3;" horiz-adv-x="1247" d="M23 0l454 1485h293l453 -1485h-219l-117 401h-535l-114 -401h-215zM322 1663q47 209 201 209q43 0 71 -10l84 -27l58 -10q67 0 94 78h96q-53 -215 -203 -215q-41 0 -67 10l-84 27q-8 2 -23.5 5t-32.5 5q-66 0 -96 -72h-98zM403 582h428l-202 725h-17z" />
<glyph unicode="&#xc4;" horiz-adv-x="1247" d="M23 0l454 1485h293l453 -1485h-219l-117 401h-535l-114 -401h-215zM363 1673v213h190v-213h-190zM403 582h428l-202 725h-17zM697 1673v213h190v-213h-190z" />
<glyph unicode="&#xc5;" horiz-adv-x="1247" d="M23 0l450 1470h78q-178 74 -178 246q0 104 73.5 180t182.5 76q104 0 180 -73.5t76 -182.5q0 -172 -180 -246h69l449 -1470h-219l-117 401h-535l-114 -401h-215zM403 582h428l-202 725h-17zM496 1716q0 -53 36 -96q37 -37 97 -37q53 0 93 38t40 95q0 55 -39 94t-94 39 t-94 -37.5t-39 -95.5z" />
<glyph unicode="&#xc6;" horiz-adv-x="1806" d="M-53 0l678 1485h1065v-185h-654v-432h465v-182h-465v-496h686v-190h-891v401h-485l-180 -401h-219zM424 582h407v718h-90z" />
<glyph unicode="&#xc7;" horiz-adv-x="1249" d="M86 739q0 369 152.5 567.5t425.5 198.5q409 0 505 -418l-198 -49q-66 287 -316 287q-166 0 -259 -151.5t-93 -436.5q0 -283 93 -428t274 -145q125 0 212 76.5t117 222.5l197 -49q-115 -438 -532 -439q-276 0 -427 196t-151 568zM412 -324q84 -18 145.5 -28t106.5 -10 q111 0 110 77q0 41 -32 66q-35 20 -101 20l-51 -2v201h86v-98h20q229 0 230 -176q0 -197 -256 -197h-64q-31 6 -53 9t-54 9.5t-87 22.5v106z" />
<glyph unicode="&#xc8;" horiz-adv-x="1196" d="M188 0v1485h914v-185h-701v-432h502v-182h-502v-496h734v-190h-947zM353 1970h215l202 -358h-120z" />
<glyph unicode="&#xc9;" horiz-adv-x="1196" d="M188 0v1485h914v-185h-701v-432h502v-182h-502v-496h734v-190h-947zM476 1612l202 358h215l-297 -358h-120z" />
<glyph unicode="&#xca;" horiz-adv-x="1196" d="M188 0v1485h914v-185h-701v-432h502v-182h-502v-496h734v-190h-947zM324 1612l197 358h204l197 -358h-123l-176 231l-178 -231h-121z" />
<glyph unicode="&#xcb;" horiz-adv-x="1196" d="M188 0v1485h914v-185h-701v-432h502v-182h-502v-496h734v-190h-947zM361 1673v213h190v-213h-190zM695 1673v213h190v-213h-190z" />
<glyph unicode="&#xcc;" horiz-adv-x="622" d="M41 1970h215l202 -358h-120zM203 0v1485h213v-1485h-213z" />
<glyph unicode="&#xcd;" horiz-adv-x="622" d="M164 1612l202 358h215l-297 -358h-120zM203 0v1485h213v-1485h-213z" />
<glyph unicode="&#xce;" horiz-adv-x="622" d="M12 1612l197 358h204l197 -358h-123l-176 231l-178 -231h-121zM203 0v1485h213v-1485h-213z" />
<glyph unicode="&#xcf;" horiz-adv-x="622" d="M49 1673v213h190v-213h-190zM203 0v1485h213v-1485h-213zM383 1673v213h190v-213h-190z" />
<glyph unicode="&#xd0;" horiz-adv-x="1404" d="M4 709v133h191v643h397q713 0 713 -742q0 -743 -738 -743h-372v709h-191zM408 190h141q283 0 410.5 128t127.5 425q0 293 -124.5 424t-401.5 131h-153v-456h307v-133h-307v-519z" />
<glyph unicode="&#xd1;" horiz-adv-x="1462" d="M182 0v1485h262l474 -815q33 -57 88 -162q37 -68 81 -158l-4 158l-4 139v838h201v-1485h-186l-535 889q-84 141 -184 340l4 -172l4 -144v-913h-201zM428 1663q47 209 201 209q43 0 71 -10l84 -27l58 -10q67 0 94 78h96q-53 -215 -203 -215q-41 0 -67 10l-84 27 q-8 2 -23.5 5t-32.5 5q-66 0 -96 -72h-98z" />
<glyph unicode="&#xd2;" horiz-adv-x="1372" d="M86 741q0 356 160.5 560t439.5 204q274 0 437 -203.5t163 -560.5q0 -354 -162.5 -560t-437.5 -206q-276 0 -438 205t-162 561zM305 741q0 -274 98.5 -424.5t282.5 -150.5q178 0 279.5 149.5t101.5 425.5t-100.5 426t-280.5 150q-176 0 -278.5 -149.5t-102.5 -426.5z M416 1970h215l202 -358h-120z" />
<glyph unicode="&#xd3;" horiz-adv-x="1372" d="M86 741q0 356 160.5 560t439.5 204q274 0 437 -203.5t163 -560.5q0 -354 -162.5 -560t-437.5 -206q-276 0 -438 205t-162 561zM305 741q0 -274 98.5 -424.5t282.5 -150.5q178 0 279.5 149.5t101.5 425.5t-100.5 426t-280.5 150q-176 0 -278.5 -149.5t-102.5 -426.5z M539 1612l202 358h215l-297 -358h-120z" />
<glyph unicode="&#xd4;" horiz-adv-x="1372" d="M86 741q0 356 160.5 560t439.5 204q274 0 437 -203.5t163 -560.5q0 -354 -162.5 -560t-437.5 -206q-276 0 -438 205t-162 561zM305 741q0 -274 98.5 -424.5t282.5 -150.5q178 0 279.5 149.5t101.5 425.5t-100.5 426t-280.5 150q-176 0 -278.5 -149.5t-102.5 -426.5z M387 1612l197 358h204l197 -358h-123l-176 231l-178 -231h-121z" />
<glyph unicode="&#xd5;" horiz-adv-x="1372" d="M86 741q0 356 160.5 560t439.5 204q274 0 437 -203.5t163 -560.5q0 -354 -162.5 -560t-437.5 -206q-276 0 -438 205t-162 561zM305 741q0 -274 98.5 -424.5t282.5 -150.5q178 0 279.5 149.5t101.5 425.5t-100.5 426t-280.5 150q-176 0 -278.5 -149.5t-102.5 -426.5z M383 1663q47 209 201 209q43 0 71 -10l84 -27l58 -10q67 0 94 78h96q-53 -215 -203 -215q-41 0 -67 10l-84 27q-8 2 -23.5 5t-32.5 5q-66 0 -96 -72h-98z" />
<glyph unicode="&#xd6;" horiz-adv-x="1372" d="M86 741q0 356 160.5 560t439.5 204q274 0 437 -203.5t163 -560.5q0 -354 -162.5 -560t-437.5 -206q-276 0 -438 205t-162 561zM305 741q0 -274 98.5 -424.5t282.5 -150.5q178 0 279.5 149.5t101.5 425.5t-100.5 426t-280.5 150q-176 0 -278.5 -149.5t-102.5 -426.5z M424 1673v213h190v-213h-190zM758 1673v213h190v-213h-190z" />
<glyph unicode="&#xd7;" horiz-adv-x="1705" d="M293 141l469 469l-469 469l98 99l469 -469l469 469l98 -99l-469 -469l469 -469l-98 -96l-469 467l-469 -467z" />
<glyph unicode="&#xd8;" horiz-adv-x="1372" d="M80 -39l153 242q-147 215 -147 540q0 348 161 555t425 207q115 0 188 -22q76 -18 152 -76l112 174l133 -86l-129 -203q72 -90 115 -234.5t43 -326.5q0 -350 -161.5 -553t-438.5 -203q-201 0 -340 111l-133 -211zM303 735q0 -186 64 -344l544 844q-92 82 -225 82 q-184 0 -283.5 -148.5t-99.5 -433.5zM451 260q90 -94 239 -94q172 0 274.5 147.5t102.5 407.5q0 123 -14 209q-13 94 -52 180z" />
<glyph unicode="&#xd9;" horiz-adv-x="1458" d="M182 522v963h213v-940q0 -199 77 -291t259 -92q186 0 260 92t74 291v940h211v-985q0 -256 -142.5 -390.5t-414.5 -134.5q-537 0 -537 547zM459 1970h215l202 -358h-120z" />
<glyph unicode="&#xda;" horiz-adv-x="1458" d="M182 522v963h213v-940q0 -199 77 -291t259 -92q186 0 260 92t74 291v940h211v-985q0 -256 -142.5 -390.5t-414.5 -134.5q-537 0 -537 547zM582 1612l202 358h215l-297 -358h-120z" />
<glyph unicode="&#xdb;" horiz-adv-x="1458" d="M182 522v963h213v-940q0 -199 77 -291t259 -92q186 0 260 92t74 291v940h211v-985q0 -256 -142.5 -390.5t-414.5 -134.5q-537 0 -537 547zM430 1612l197 358h204l197 -358h-123l-176 231l-178 -231h-121z" />
<glyph unicode="&#xdc;" horiz-adv-x="1458" d="M182 522v963h213v-940q0 -199 77 -291t259 -92q186 0 260 92t74 291v940h211v-985q0 -256 -142.5 -390.5t-414.5 -134.5q-537 0 -537 547zM467 1673v213h190v-213h-190zM801 1673v213h190v-213h-190z" />
<glyph unicode="&#xdd;" horiz-adv-x="1134" d="M18 1485h230l323 -656l324 656h219l-438 -875v-610h-215v608zM420 1612l202 358h215l-297 -358h-120z" />
<glyph unicode="&#xde;" horiz-adv-x="1261" d="M184 0v1485h213v-293h262q260 0 389.5 -103.5t129.5 -316.5q0 -203 -123 -315.5t-359 -112.5h-299v-344h-213zM397 524h234q174 0 252 55.5t78 194.5q0 129 -79 184.5t-257 55.5h-228v-490z" />
<glyph unicode="&#xdf;" horiz-adv-x="1073" d="M154 0v1073q0 197 101 304.5t286 107.5q178 0 277.5 -99.5t99.5 -285.5q0 -240 -168 -289q117 -20 184 -126.5t67 -274.5q0 -209 -92 -319.5t-260 -110.5q-104 0 -198 57l61 147q66 -43 119 -43q80 0 125 71t45 196q0 309 -301 309v153q223 0 223 222q0 106 -49 166.5 t-137 60.5q-86 0 -137.5 -54.5t-51.5 -131.5v-1133h-194z" />
<glyph unicode="&#xe0;" horiz-adv-x="1040" d="M76 276q0 170 150.5 271.5t478.5 157.5v81q0 68 -51.5 107t-139.5 39q-160 0 -248 -146l-149 86q127 219 413 220q168 0 266.5 -85t98.5 -233v-612q0 -70 20 -150v-12h-196l-21 123q-150 -137 -329 -137q-137 0 -215 77q-37 39 -57.5 92.5t-20.5 120.5zM256 1554h215 l202 -358h-120zM268 287q0 -143 152 -144q118 1 280 144v264q-432 -74 -432 -264z" />
<glyph unicode="&#xe1;" horiz-adv-x="1040" d="M76 276q0 170 150.5 271.5t478.5 157.5v81q0 68 -51.5 107t-139.5 39q-160 0 -248 -146l-149 86q127 219 413 220q168 0 266.5 -85t98.5 -233v-612q0 -70 20 -150v-12h-196l-21 123q-150 -137 -329 -137q-137 0 -215 77q-37 39 -57.5 92.5t-20.5 120.5zM268 287 q0 -143 152 -144q118 1 280 144v264q-432 -74 -432 -264zM379 1196l202 358h215l-297 -358h-120z" />
<glyph unicode="&#xe2;" horiz-adv-x="1040" d="M76 276q0 170 150.5 271.5t478.5 157.5v81q0 68 -51.5 107t-139.5 39q-160 0 -248 -146l-149 86q127 219 413 220q168 0 266.5 -85t98.5 -233v-612q0 -70 20 -150v-12h-196l-21 123q-150 -137 -329 -137q-137 0 -215 77q-37 39 -57.5 92.5t-20.5 120.5zM227 1196l197 358 h204l197 -358h-123l-176 231l-178 -231h-121zM268 287q0 -143 152 -144q118 1 280 144v264q-432 -74 -432 -264z" />
<glyph unicode="&#xe3;" horiz-adv-x="1040" d="M76 276q0 170 150.5 271.5t478.5 157.5v81q0 68 -51.5 107t-139.5 39q-160 0 -248 -146l-149 86q127 219 413 220q168 0 266.5 -85t98.5 -233v-612q0 -70 20 -150v-12h-196l-21 123q-150 -137 -329 -137q-137 0 -215 77q-37 39 -57.5 92.5t-20.5 120.5zM223 1247 q47 209 201 209q43 0 71 -10l84 -27l58 -10q67 0 94 78h96q-53 -215 -203 -215q-41 0 -67 10l-84 27q-8 2 -23.5 5t-32.5 5q-66 0 -96 -72h-98zM268 287q0 -143 152 -144q118 1 280 144v264q-432 -74 -432 -264z" />
<glyph unicode="&#xe4;" horiz-adv-x="1040" d="M76 276q0 170 150.5 271.5t478.5 157.5v81q0 68 -51.5 107t-139.5 39q-160 0 -248 -146l-149 86q127 219 413 220q168 0 266.5 -85t98.5 -233v-612q0 -70 20 -150v-12h-196l-21 123q-150 -137 -329 -137q-137 0 -215 77q-37 39 -57.5 92.5t-20.5 120.5zM264 1257v213h190 v-213h-190zM268 287q0 -143 152 -144q118 1 280 144v264q-432 -74 -432 -264zM598 1257v213h190v-213h-190z" />
<glyph unicode="&#xe5;" horiz-adv-x="1040" d="M76 276q0 170 150.5 271.5t478.5 157.5v81q0 68 -51.5 107t-139.5 39q-160 0 -248 -146l-149 86q127 219 413 220q168 0 266.5 -85t98.5 -233v-612q0 -70 20 -150v-12h-196l-21 123q-150 -137 -329 -137q-137 0 -215 77q-37 39 -57.5 92.5t-20.5 120.5zM268 287 q0 -143 152 -144q118 1 280 144v264q-432 -74 -432 -264zM268 1432q0 104 73.5 180t182.5 76q104 0 180 -74t76 -182q0 -104 -73.5 -180t-182.5 -76q-104 0 -180 73.5t-76 182.5zM391 1432q0 -53 37 -97q37 -37 96 -37q53 0 93 38t40 96q0 55 -39 94t-94 39t-94 -38t-39 -95 z" />
<glyph unicode="&#xe6;" horiz-adv-x="1615" d="M53 274q0 332 635 426l2 80q0 70 -51 112t-141 42q-158 0 -250 -150l-152 86q133 219 398 220q102 0 181 -31t138 -98q125 131 297 131q207 0 319.5 -143.5t112.5 -407.5v-41h-665v-15q0 -164 68.5 -254t197.5 -90q178 0 264 170l141 -88q-129 -244 -422 -243 q-123 0 -212 44t-148 146q-184 -188 -404 -188q-143 0 -226 79.5t-83 212.5zM250 283q0 -66 42 -105t114 -39q57 0 126.5 37t153.5 109v266q-227 -43 -331.5 -105.5t-104.5 -162.5zM881 651h462q0 133 -62 210t-167 77q-102 0 -170 -76q-63 -76 -63 -211z" />
<glyph unicode="&#xe7;" horiz-adv-x="974" d="M68 524q0 262 116.5 415t317.5 153q307 0 407 -285l-174 -66q-59 186 -223 187q-117 0 -182.5 -101.5t-65.5 -289.5q0 -391 250 -392q164 0 256 193l156 -82q-123 -274 -420 -274q-211 0 -324.5 141t-113.5 401zM266 -324q84 -18 145.5 -28t106.5 -10q111 0 110 77 q0 41 -32 66q-35 20 -101 20l-51 -2v201h86v-98h20q229 0 230 -176q0 -197 -256 -197h-64q-31 6 -53 9t-54 9.5t-87 22.5v106z" />
<glyph unicode="&#xe8;" horiz-adv-x="997" d="M70 524q0 274 115.5 421t326.5 147q188 0 304 -142.5t116 -392.5l-2 -55h-664v-21q0 -160 70 -249t199 -89q166 0 260 168l143 -88q-135 -244 -414 -243q-223 0 -338.5 139t-115.5 405zM238 1554h215l202 -358h-120zM268 651h465q0 133 -61.5 209t-165.5 76 q-106 0 -174 -74q-63 -76 -64 -211z" />
<glyph unicode="&#xe9;" horiz-adv-x="997" d="M70 524q0 274 115.5 421t326.5 147q188 0 304 -142.5t116 -392.5l-2 -55h-664v-21q0 -160 70 -249t199 -89q166 0 260 168l143 -88q-135 -244 -414 -243q-223 0 -338.5 139t-115.5 405zM268 651h465q0 133 -61.5 209t-165.5 76q-106 0 -174 -74q-63 -76 -64 -211z M361 1196l202 358h215l-297 -358h-120z" />
<glyph unicode="&#xea;" horiz-adv-x="997" d="M70 524q0 274 115.5 421t326.5 147q188 0 304 -142.5t116 -392.5l-2 -55h-664v-21q0 -160 70 -249t199 -89q166 0 260 168l143 -88q-135 -244 -414 -243q-223 0 -338.5 139t-115.5 405zM209 1196l197 358h204l197 -358h-123l-176 231l-178 -231h-121zM268 651h465 q0 133 -61.5 209t-165.5 76q-106 0 -174 -74q-63 -76 -64 -211z" />
<glyph unicode="&#xeb;" horiz-adv-x="997" d="M70 524q0 274 115.5 421t326.5 147q188 0 304 -142.5t116 -392.5l-2 -55h-664v-21q0 -160 70 -249t199 -89q166 0 260 168l143 -88q-135 -244 -414 -243q-223 0 -338.5 139t-115.5 405zM246 1257v213h190v-213h-190zM268 651h465q0 133 -61.5 209t-165.5 76 q-106 0 -174 -74q-63 -76 -64 -211zM580 1257v213h190v-213h-190z" />
<glyph unicode="&#xec;" horiz-adv-x="514" d="M-12 1554h215l202 -358h-120zM160 0v1073h196v-1073h-196z" />
<glyph unicode="&#xed;" horiz-adv-x="514" d="M111 1196l202 358h215l-297 -358h-120zM160 0v1073h196v-1073h-196z" />
<glyph unicode="&#xee;" horiz-adv-x="514" d="M-41 1196l197 358h204l197 -358h-123l-176 231l-178 -231h-121zM160 0v1073h196v-1073h-196z" />
<glyph unicode="&#xef;" horiz-adv-x="514" d="M-4 1257v213h190v-213h-190zM160 0v1073h196v-1073h-196zM330 1257v213h190v-213h-190z" />
<glyph unicode="&#xf0;" horiz-adv-x="1032" d="M63 510q0 246 120 385t331 139l51 -2q16 0 51 -12q-37 55 -79 98l-82 74l-238 -141l-57 90l202 121q-100 68 -202 116l55 127q147 -51 301 -153l236 141l57 -90l-205 -121q362 -311 363 -776q0 -250 -119 -388t-328 -138q-215 0 -336 139t-121 391zM262 510 q0 -373 254 -373t254 369q0 371 -254 371t-254 -367z" />
<glyph unicode="&#xf1;" horiz-adv-x="1112" d="M154 0v1073h178v-147q86 74 172 121q82 41 170 40q139 0 216 -82.5t77 -232.5v-772h-195v719q0 207 -158 207q-123 0 -268 -142v-784h-192zM254 1247q47 209 201 209q43 0 71 -10l84 -27l58 -10q67 0 94 78h96q-53 -215 -203 -215q-41 0 -67 10l-84 27q-8 2 -23.5 5 t-32.5 5q-66 0 -96 -72h-98z" />
<glyph unicode="&#xf2;" horiz-adv-x="1032" d="M63 537q0 264 118 409.5t335 145.5t334 -144.5t117 -410.5t-118 -411.5t-333 -145.5q-213 0 -333 147t-120 410zM246 1554h215l202 -358h-120zM262 537q0 -389 254 -390q254 0 254 388q0 389 -254 389t-254 -387z" />
<glyph unicode="&#xf3;" horiz-adv-x="1032" d="M63 537q0 264 118 409.5t335 145.5t334 -144.5t117 -410.5t-118 -411.5t-333 -145.5q-213 0 -333 147t-120 410zM262 537q0 -389 254 -390q254 0 254 388q0 389 -254 389t-254 -387zM369 1196l202 358h215l-297 -358h-120z" />
<glyph unicode="&#xf4;" horiz-adv-x="1032" d="M63 537q0 264 118 409.5t335 145.5t334 -144.5t117 -410.5t-118 -411.5t-333 -145.5q-213 0 -333 147t-120 410zM217 1196l197 358h204l197 -358h-123l-176 231l-178 -231h-121zM262 537q0 -389 254 -390q254 0 254 388q0 389 -254 389t-254 -387z" />
<glyph unicode="&#xf5;" horiz-adv-x="1032" d="M63 537q0 264 118 409.5t335 145.5t334 -144.5t117 -410.5t-118 -411.5t-333 -145.5q-213 0 -333 147t-120 410zM213 1247q47 209 201 209q43 0 71 -10l84 -27l58 -10q67 0 94 78h96q-53 -215 -203 -215q-41 0 -67 10l-84 27q-8 2 -23.5 5t-32.5 5q-66 0 -96 -72h-98z M262 537q0 -389 254 -390q254 0 254 388q0 389 -254 389t-254 -387z" />
<glyph unicode="&#xf6;" horiz-adv-x="1032" d="M63 537q0 264 118 409.5t335 145.5t334 -144.5t117 -410.5t-118 -411.5t-333 -145.5q-213 0 -333 147t-120 410zM254 1257v213h190v-213h-190zM262 537q0 -389 254 -390q254 0 254 388q0 389 -254 389t-254 -387zM588 1257v213h190v-213h-190z" />
<glyph unicode="&#xf7;" horiz-adv-x="1705" d="M254 541v139h1198v-139h-1198zM729 242q0 47 37 86t88 39t88 -36t37 -89q0 -49 -36 -87t-89 -38q-55 0 -90 34.5t-35 90.5zM729 979q0 49 37 88t88 39q47 0 86 -37t39 -90q0 -49 -36 -87t-89 -38t-90 35q-35 39 -35 90z" />
<glyph unicode="&#xf8;" horiz-adv-x="1032" d="M63 528q0 274 120 419t343 145q109 0 205 -50l82 142l121 -72l-94 -158q127 -133 127 -417q0 -268 -119 -412.5t-338 -144.5q-113 0 -213 53l-96 -164l-121 70l106 184q-63 78 -93 179t-30 226zM252 543q0 -152 41 -254l358 600q-55 39 -133 39q-266 0 -266 -385z M375 184q74 -43 143 -43q264 0 264 410q0 160 -45 242z" />
<glyph unicode="&#xf9;" horiz-adv-x="1112" d="M145 299v774h195v-721q0 -104 37 -155.5t121 -51.5q125 0 266 142v786h194v-1073h-180v145q-94 -84 -176 -122.5t-168 -38.5q-133 0 -211 81.5t-78 233.5zM287 1554h215l202 -358h-120z" />
<glyph unicode="&#xfa;" horiz-adv-x="1112" d="M145 299v774h195v-721q0 -104 37 -155.5t121 -51.5q125 0 266 142v786h194v-1073h-180v145q-94 -84 -176 -122.5t-168 -38.5q-133 0 -211 81.5t-78 233.5zM410 1196l202 358h215l-297 -358h-120z" />
<glyph unicode="&#xfb;" horiz-adv-x="1112" d="M145 299v774h195v-721q0 -104 37 -155.5t121 -51.5q125 0 266 142v786h194v-1073h-180v145q-94 -84 -176 -122.5t-168 -38.5q-133 0 -211 81.5t-78 233.5zM258 1196l197 358h204l197 -358h-123l-176 231l-178 -231h-121z" />
<glyph unicode="&#xfc;" horiz-adv-x="1112" d="M145 299v774h195v-721q0 -104 37 -155.5t121 -51.5q125 0 266 142v786h194v-1073h-180v145q-94 -84 -176 -122.5t-168 -38.5q-133 0 -211 81.5t-78 233.5zM295 1257v213h190v-213h-190zM629 1257v213h190v-213h-190z" />
<glyph unicode="&#xfd;" horiz-adv-x="956" d="M16 1073h195l278 -790l254 790h193l-354 -1057q-72 -219 -146 -303q-90 -102 -250 -102l-61 2q-27 0 -53 10v170q23 -6 40 -8t54 -2q96 0 148.5 54t82.5 186zM332 1196l202 358h215l-297 -358h-120z" />
<glyph unicode="&#xfe;" horiz-adv-x="1112" d="M154 -389v1874h196v-514q100 119 262 119q197 0 316 -149.5t119 -414.5q0 -256 -119 -400t-320 -144q-162 0 -262 127v-498h-192zM344 272q113 -131 240 -131q123 0 193.5 99.5t70.5 287.5q0 397 -270 398q-129 0 -234 -131v-523z" />
<glyph unicode="&#xff;" horiz-adv-x="956" d="M16 1073h195l278 -790l254 790h193l-354 -1057q-72 -219 -146 -303q-90 -102 -250 -102l-61 2q-27 0 -53 10v170q23 -6 40 -8t54 -2q96 0 148.5 54t82.5 186zM217 1257v213h190v-213h-190zM551 1257v213h190v-213h-190z" />
<glyph unicode="&#x152;" horiz-adv-x="1949" d="M78 741q0 360 153.5 562t425.5 202q102 0 186 -36.5t152 -116.5v133h860v-185h-653v-432h463v-182h-463v-496h686v-190h-893v139q-117 -164 -342 -164q-264 0 -419.5 201t-155.5 565zM297 741q0 -279 97.5 -427t275.5 -148q147 0 254 119q68 80 67 147v617 q0 23 -20.5 70.5t-52.5 84.5q-100 113 -248 113q-178 0 -275.5 -148.5t-97.5 -427.5z" />
<glyph unicode="&#x153;" horiz-adv-x="1693" d="M63 535q0 264 120 410.5t333 146.5q227 0 348 -177q123 172 334 172q203 0 315.5 -143t112.5 -405v-41h-665v-25q0 -162 68.5 -247t197.5 -85q176 0 264 168l141 -90q-131 -242 -411 -242q-129 0 -212.5 39.5t-146.5 137.5q-123 -172 -344 -172q-211 0 -333 144t-122 409 zM262 537q0 -389 254 -390q254 0 254 388q0 389 -254 389t-254 -387zM965 649h462q0 129 -62 207t-167 78q-109 0 -171 -75t-62 -210z" />
<glyph unicode="&#x178;" horiz-adv-x="1134" d="M18 1485h230l323 -656l324 656h219l-438 -875v-610h-215v608zM305 1673v213h190v-213h-190zM639 1673v213h190v-213h-190z" />
<glyph unicode="&#x2c6;" d="M213 1196l197 358h204l197 -358h-123l-176 231l-178 -231h-121z" />
<glyph unicode="&#x2dc;" d="M209 1247q47 209 201 209q43 0 71 -10l84 -27l58 -10q67 0 94 78h96q-53 -215 -203 -215q-41 0 -67 10l-84 27q-8 2 -23.5 5t-32.5 5q-66 0 -96 -72h-98z" />
<glyph unicode="&#x2000;" horiz-adv-x="986" />
<glyph unicode="&#x2001;" horiz-adv-x="1972" />
<glyph unicode="&#x2002;" horiz-adv-x="986" />
<glyph unicode="&#x2003;" horiz-adv-x="1972" />
<glyph unicode="&#x2004;" horiz-adv-x="657" />
<glyph unicode="&#x2005;" horiz-adv-x="493" />
<glyph unicode="&#x2006;" horiz-adv-x="328" />
<glyph unicode="&#x2007;" horiz-adv-x="328" />
<glyph unicode="&#x2008;" horiz-adv-x="246" />
<glyph unicode="&#x2009;" horiz-adv-x="394" />
<glyph unicode="&#x200a;" horiz-adv-x="109" />
<glyph unicode="&#x2010;" horiz-adv-x="675" d="M92 449v174h481v-174h-481z" />
<glyph unicode="&#x2011;" horiz-adv-x="675" d="M92 449v174h481v-174h-481z" />
<glyph unicode="&#x2012;" horiz-adv-x="675" d="M92 449v174h481v-174h-481z" />
<glyph unicode="&#x2013;" d="M0 467v137h1024v-137h-1024z" />
<glyph unicode="&#x2014;" horiz-adv-x="2048" d="M0 467v137h2048v-137h-2048z" />
<glyph unicode="&#x2018;" horiz-adv-x="512" d="M141 920v260l129 305h115l-106 -318h96v-247h-234z" />
<glyph unicode="&#x2019;" horiz-adv-x="512" d="M125 920l108 317h-98v248h234v-260l-127 -305h-117z" />
<glyph unicode="&#x201a;" horiz-adv-x="512" d="M127 -313l106 317h-96v248h234v-260l-129 -305h-115z" />
<glyph unicode="&#x201c;" horiz-adv-x="858" d="M115 920v260l129 305h114l-106 -318h96v-247h-233zM518 920v260l129 305h115l-107 -318h97v-247h-234z" />
<glyph unicode="&#x201d;" horiz-adv-x="858" d="M100 920l107 317h-96v248h233v-260l-129 -305h-115zM500 920l106 317h-96v248h233v-260l-129 -305h-114z" />
<glyph unicode="&#x201e;" horiz-adv-x="858" d="M100 -317l107 317h-96v248h233v-260l-129 -305h-115zM500 -317l106 317h-96v248h233v-260l-129 -305h-114z" />
<glyph unicode="&#x2022;" horiz-adv-x="1208" d="M307 762q0 123 86 209t211 86q123 0 209 -86t86 -209q0 -119 -87 -208t-210 -89t-209 86t-86 211z" />
<glyph unicode="&#x2026;" horiz-adv-x="2048" d="M225 0v256h234v-256h-234zM907 0v256h234v-256h-234zM1591 0v256h234v-256h-234z" />
<glyph unicode="&#x202f;" horiz-adv-x="394" />
<glyph unicode="&#x2039;" horiz-adv-x="688" d="M98 537l254 319h187l-250 -319l248 -322h-191z" />
<glyph unicode="&#x203a;" horiz-adv-x="688" d="M143 213l252 322l-248 321h191l248 -321l-254 -322h-189z" />
<glyph unicode="&#x205f;" horiz-adv-x="493" />
<glyph unicode="&#x2122;" horiz-adv-x="1705" d="M242 1378v80h452v-80h-172v-458h-108v458h-172zM813 920v538h150l151 -385l141 385h150v-538h-98v444l-166 -444h-56l-174 444v-444h-98z" />
<glyph unicode="&#xe000;" horiz-adv-x="1075" d="M0 0v1075h1075v-1075h-1075z" />
</font>
</defs>
</svg>
